<?xml version="1.0" encoding="iso-8859-1"?>
<!-- Uploaded to: SVG Repo, www.svgrepo.com, Generator: SVG Repo Mixer Tools -->
<svg fill="#000000" height="800px" width="800px" version="1.1" id="Layer_1" xmlns="http://www.w3.org/2000/svg" xmlns:xlink="http://www.w3.org/1999/xlink" 
	 viewBox="0 0 512.002 512.002" xml:space="preserve">
<g>
	<g>
		<path d="M271.334,88.027c-50.539-50.535-132.769-50.535-183.307,0c-24.481,24.482-37.964,57.031-37.964,91.653
			c0,34.622,13.483,67.173,37.964,91.653c24.55,24.552,57.573,37.967,91.647,37.966c8.11,0,16.284-0.76,24.412-2.312
			c4.756-0.907,7.876-5.498,6.968-10.255c-0.908-4.756-5.502-7.882-10.255-6.968c-36.572,6.979-74.093-4.546-100.376-30.83
			c-21.17-21.168-32.829-49.315-32.829-79.256c0-29.938,11.66-58.085,32.829-79.256c43.702-43.702,114.809-43.702,158.511,0
			c21.17,21.17,32.828,49.316,32.828,79.256c0,29.94-11.658,58.086-32.829,79.257c-8.202,8.203-17.545,15.043-27.769,20.333
			c-4.3,2.223-5.984,7.514-3.759,11.813c2.227,4.301,7.517,5.986,11.817,3.76c11.828-6.117,22.632-14.027,32.111-23.506
			c24.481-24.481,37.964-57.032,37.964-91.654C309.298,145.058,295.815,112.509,271.334,88.027z"/>
	</g>
</g>
<g>
	<g>
		<path d="M225.077,170.914h-90.794c-4.841,0-8.767,3.924-8.767,8.767s3.925,8.767,8.767,8.767h90.794
			c4.843,0,8.767-3.924,8.767-8.767S229.919,170.914,225.077,170.914z"/>
	</g>
</g>
<g>
	<g>
		<path d="M492.546,415.297c-17.998-24.996-42.475-41.244-68.389-58.446c-24.685-16.388-50.169-33.336-72.843-59.495
			c3.209-15.176,0.313-30.206-9.158-40.931c31.407-66.656,19.608-148.778-35.417-203.802C275.259,21.145,233.46,2.542,189.039,0.243
			C144.954-2.04,101.785,11.84,67.484,39.324c-3.778,3.027-4.387,8.544-1.359,12.322c3.027,3.779,8.544,4.389,12.323,1.359
			C142.973,1.304,235.788,6.468,294.34,65.022c52.11,52.11,61.261,131.15,27.471,192.729c-0.175,0.318-0.342,0.641-0.52,0.957
			c-14.564,26.055-36.499,47.984-62.548,62.562c-0.457,0.256-0.921,0.499-1.38,0.75c-61.523,33.539-140.34,24.319-192.341-27.681
			c-28.799-28.799-45.611-67.049-47.34-107.709c-1.718-40.413,11.541-79.707,37.337-110.644c3.101-3.718,2.6-9.246-1.119-12.347
			c-3.719-3.102-9.247-2.603-12.347,1.119C12.96,99.05-1.739,142.597,0.165,187.375c1.916,45.059,20.547,87.448,52.459,119.362
			c35.03,35.03,81.043,52.545,127.057,52.545c26.266,0,52.528-5.717,76.752-17.132c7.702,6.792,17.981,10.512,29.238,10.513
			c3.911,0,7.854-0.443,11.768-1.279c26.114,22.659,43.045,48.117,59.415,72.777c1.815,2.734,3.618,5.449,5.419,8.139
			c2.693,4.022,8.139,5.099,12.162,2.408c4.023-2.694,5.101-8.139,2.407-12.162c-1.787-2.67-3.577-5.366-5.38-8.08
			c-14.868-22.398-31.478-47.418-55.628-70.114c0.714,0.671,9.974-6.803,10.929-7.592c7.058-5.832,13.096-12.944,17.579-20.933
			c22.696,24.153,47.718,40.763,70.117,55.633c24.544,16.292,47.726,31.681,63.857,54.085c29.23,40.595,9.982,58.674,8.52,59.953
			c-0.583,0.441-0.912,0.804-1.375,1.387c-0.174,0.22-17.941,21.657-59.919-8.565c-9.732-7.007-18.572-15.555-27.823-26.901
			c-3.059-3.753-8.583-4.314-12.334-1.254c-3.752,3.059-4.314,8.582-1.254,12.334c10.108,12.397,20.303,22.227,31.167,30.049
			c17.975,12.941,34.76,19.455,50.072,19.455c3.908,0,7.723-0.424,11.434-1.275c12.487-2.861,19.573-9.758,21.742-12.18
			c2.422-2.169,9.318-9.255,12.179-21.742C514.907,458.551,508.791,437.858,492.546,415.297z M333.671,296.335
			c-0.113,0.274-0.227,0.546-0.313,0.833c-2.528,8.45-7.379,16.059-13.578,22.292c-0.054,0.054-0.102,0.111-0.155,0.165
			c-8.858,8.855-21.194,15.506-33.956,15.506c-3.371,0-7.654-0.499-11.828-2.374c0.273-0.168,0.54-0.347,0.812-0.517
			c0.367-0.228,0.729-0.465,1.095-0.697c11.173-7.065,21.642-15.456,30.99-24.805c9.402-9.402,17.772-19.862,24.876-31.103
			c0.205-0.323,0.414-0.644,0.616-0.968c0.178-0.284,0.364-0.562,0.54-0.847C335.723,280.285,335.95,288.237,333.671,296.335z"/>
	</g>
</g>
</svg>